<?xml version="1.0" encoding="UTF-8"?>
<!DOCTYPE svg PUBLIC "-//W3C//DTD SVG 1.1//EN" "http://www.w3.org/Graphics/SVG/1.1/DTD/svg11.dtd">
<svg xmlns="http://www.w3.org/2000/svg" version="1.1" width="220px" height="220px" style="shape-rendering:geometricPrecision; text-rendering:geometricPrecision; image-rendering:optimizeQuality; fill-rule:evenodd; clip-rule:evenodd" xmlns:xlink="http://www.w3.org/1999/xlink">
<g><path style="opacity:1" fill="#201d1e" d="M 103.5,54.5 C 106.089,53.5806 108.089,51.914 109.5,49.5C 110.6,48.4415 111.934,47.6082 113.5,47C 122.211,44.132 128.045,46.9653 131,55.5C 132.356,62.576 131.356,69.2426 128,75.5C 126.513,76.1552 125.347,77.1552 124.5,78.5C 142.539,99.2538 149.539,123.254 145.5,150.5C 166.628,148.763 187.294,150.929 207.5,157C 208.982,159.592 208.648,161.925 206.5,164C 203.529,164.794 200.529,165.461 197.5,166C 177.143,166.746 156.81,167.746 136.5,169C 127.944,175.877 119.611,183.21 111.5,191C 108.588,193.422 105.255,194.589 101.5,194.5C 99.3587,194.387 97.5253,193.72 96,192.5C 94.8361,187.274 95.6694,182.441 98.5,178C 94.442,176.444 90.2753,175.277 86,174.5C 77.7537,177.52 69.2537,179.52 60.5,180.5C 54.848,180.037 53.0147,177.037 55,171.5C 57.1667,169.333 59.3333,167.167 61.5,165C 58.9598,162.795 56.7932,160.295 55,157.5C 54.3333,152.167 54.3333,146.833 55,141.5C 58.2972,134.275 60.7972,126.775 62.5,119C 62.1667,117.5 61.8333,116 61.5,114.5C 56.733,111.409 51.8997,108.409 47,105.5C 45.3196,100.594 47.1529,97.2608 52.5,95.5C 53.675,95.719 54.675,95.3857 55.5,94.5C 55.3764,93.8933 55.0431,93.56 54.5,93.5C 45.3595,90.0937 36.3595,86.427 27.5,82.5C 27.1667,81.5 26.5,80.8333 25.5,80.5C 24.3414,77.7473 24.8414,75.0806 27,72.5C 30.8374,67.5004 35.6707,63.8337 41.5,61.5C 43.0269,61.573 44.0269,60.9063 44.5,59.5C 47.5932,57.8907 50.9266,56.8907 54.5,56.5C 56.8333,56.5 59.1667,56.5 61.5,56.5C 61.5,55.1667 61.5,53.8333 61.5,52.5C 61.7073,49.7594 62.7073,47.4261 64.5,45.5C 65.9063,45.0269 66.573,44.0269 66.5,42.5C 74.3946,31.256 83.8946,29.5893 95,37.5C 98.1905,43.751 99.3572,50.4177 98.5,57.5C 100.959,57.69 102.626,56.69 103.5,54.5 Z"/></g>
<g><path style="opacity:1" fill="#635ccc" d="M 112.5,184.5 C 110.354,180.718 107.02,178.384 102.5,177.5C 97.6051,174.431 92.2718,172.098 86.5,170.5C 81.1493,172.17 75.816,173.837 70.5,175.5C 70.9459,171.64 69.6125,168.64 66.5,166.5C 66.6107,165.883 66.944,165.383 67.5,165C 58.9495,160.688 55.7828,153.855 58,144.5C 61.2795,135.783 64.1128,126.95 66.5,118C 66.3333,116.5 66.1667,115 66,113.5C 63.7272,111.372 61.2272,109.705 58.5,108.5C 61.6356,107.566 63.3023,105.399 63.5,102C 62.8366,100.482 61.8366,99.3149 60.5,98.5C 62.0808,96.8583 62.7475,94.8583 62.5,92.5C 54.4239,90.2454 46.7573,87.2454 39.5,83.5C 41.3426,78.0532 40.6759,73.0532 37.5,68.5C 40.2558,65.6109 43.5891,63.4442 47.5,62C 52.7319,60.2344 58.0652,58.901 63.5,58C 65.3182,46.6822 71.6515,39.1822 82.5,35.5C 90.7358,36.2359 95.0691,40.7359 95.5,49C 94.6058,52.7762 94.2725,56.6095 94.5,60.5C 96.8845,60.4433 99.2178,60.7766 101.5,61.5C 105.292,58.2101 108.958,54.7101 112.5,51C 122.566,47.8708 127.899,51.7041 128.5,62.5C 128.318,65.2263 127.818,67.8929 127,70.5C 124.624,73.0448 122.124,75.3782 119.5,77.5C 128.186,87.6925 135.019,99.0258 140,111.5C 145.837,129.467 144.504,146.801 136,163.5C 128.891,171.449 121.058,178.449 112.5,184.5 Z"/></g>
<g><path style="opacity:1" fill="#766969" d="M 66.5,42.5 C 66.573,44.0269 65.9063,45.0269 64.5,45.5C 64.427,43.9731 65.0937,42.9731 66.5,42.5 Z"/></g>
<g><path style="opacity:1" fill="#625353" d="M 109.5,49.5 C 108.089,51.914 106.089,53.5806 103.5,54.5C 104.911,52.086 106.911,50.4194 109.5,49.5 Z"/></g>
<g><path style="opacity:1" fill="#7b7575" d="M 61.5,52.5 C 61.5,53.8333 61.5,55.1667 61.5,56.5C 59.1667,56.5 56.8333,56.5 54.5,56.5C 56.2646,55.5386 58.2646,55.2053 60.5,55.5C 60.2627,54.209 60.596,53.209 61.5,52.5 Z"/></g>
<g><path style="opacity:1" fill="#7b6766" d="M 44.5,59.5 C 44.0269,60.9063 43.0269,61.573 41.5,61.5C 41.9731,60.0937 42.9731,59.427 44.5,59.5 Z"/></g>
<g><path style="opacity:1" fill="#b09ee8" d="M 37.5,68.5 C 40.6759,73.0532 41.3426,78.0532 39.5,83.5C 25.6181,80.6818 24.9514,75.6818 37.5,68.5 Z"/></g>
<g><path style="opacity:1" fill="#000000" d="M 90.5,80.5 C 95.8068,82.4565 95.8068,84.4565 90.5,86.5C 88.0006,84.6045 88.0006,82.6045 90.5,80.5 Z"/></g>
<g><path style="opacity:1" fill="#a38b8b" d="M 25.5,80.5 C 26.5,80.8333 27.1667,81.5 27.5,82.5C 26.1667,82.5 25.5,81.8333 25.5,80.5 Z"/></g>
<g><path style="opacity:1" fill="#636463" d="M 95.5,88.5 C 98.0896,88.9182 100.423,89.9182 102.5,91.5C 100.116,93.7223 97.4495,94.0556 94.5,92.5C 94.4326,91.0413 94.7659,89.7079 95.5,88.5 Z"/></g>
<g><path style="opacity:1" fill="#8b7d7d" d="M 54.5,93.5 C 55.0431,93.56 55.3764,93.8933 55.5,94.5C 54.675,95.3857 53.675,95.719 52.5,95.5C 53.1667,94.8333 53.8333,94.1667 54.5,93.5 Z"/></g>
<g><path style="opacity:1" fill="#af9de6" d="M 60.5,98.5 C 61.8366,99.3149 62.8366,100.482 63.5,102C 63.3023,105.399 61.6356,107.566 58.5,108.5C 46.4375,102.567 47.1042,99.2341 60.5,98.5 Z"/></g>
<g><path style="opacity:1" fill="#040405" d="M 100.5,101.5 C 91.8134,100.371 89.6467,103.704 94,111.5C 95.0113,112.337 96.1779,112.67 97.5,112.5C 98.6256,113.858 98.6256,115.192 97.5,116.5C 93.8488,114.261 91.0155,111.261 89,107.5C 88.3333,105.833 88.3333,104.167 89,102.5C 92.9815,98.2136 97.4815,97.2136 102.5,99.5C 101.757,100.182 101.091,100.849 100.5,101.5 Z"/></g>
<g><path style="opacity:1" fill="#b09ee7" d="M 100.5,101.5 C 101.193,105.753 100.193,109.419 97.5,112.5C 96.1779,112.67 95.0113,112.337 94,111.5C 89.6467,103.704 91.8134,100.371 100.5,101.5 Z"/></g>
<g><path style="opacity:1" fill="#ac9be2" d="M 143.5,153.5 C 164.044,151.849 184.044,154.016 203.5,160C 202.833,160.667 202.167,161.333 201.5,162C 180.5,163.119 159.5,163.786 138.5,164C 140.582,160.671 142.248,157.171 143.5,153.5 Z"/></g>
<g><path style="opacity:1" fill="#b19fe9" d="M 66.5,166.5 C 69.6125,168.64 70.9459,171.64 70.5,175.5C 55.1156,178.46 53.7823,175.46 66.5,166.5 Z"/></g>
<g><path style="opacity:1" fill="#af9de6" d="M 102.5,177.5 C 107.02,178.384 110.354,180.718 112.5,184.5C 109.169,188.832 104.835,190.999 99.5,191C 98.4238,189.274 98.2571,187.441 99,185.5C 100.083,182.733 101.25,180.067 102.5,177.5 Z"/></g>
</svg>
